<?xml version="1.0" encoding="utf-8"?>
<!-- Generator: Adobe Illustrator 21.0.0, SVG Export Plug-In . SVG Version: 6.00 Build 0)  -->
<svg version="1.1" xmlns="http://www.w3.org/2000/svg" xmlns:xlink="http://www.w3.org/1999/xlink" x="0px" y="0px"
	 viewBox="0 0 772.3 272" style="enable-background:new 0 0 772.3 272;" xml:space="preserve">
<style type="text/css">
	.st0{fill:#FFFFFF;stroke:#000000;stroke-width:2;stroke-miterlimit:10;}
	.st1{stroke:#000000;stroke-width:3;stroke-miterlimit:10;}
	.st2{stroke:#000000;stroke-width:2;stroke-miterlimit:10;}
	.st3{stroke:#000000;stroke-width:3;stroke-linecap:round;stroke-linejoin:round;stroke-miterlimit:10;}
	.st4{fill:none;}
	.st5{font-family:'MyriadPro-Regular';}
	.st6{font-size:30px;}
	.st7{font-size:25px;}
</style>
<g id="Layer_1">
	<rect x="249.8" y="35.9" class="st0" width="161" height="83.5"/>
	<rect x="499.5" y="34.8" class="st0" width="161" height="83.5"/>
	<rect x="249.8" y="169" class="st0" width="161" height="83.5"/>
	<path class="st1" d="M905,165"/>
	<line class="st1" x1="662.5" y1="76.5" x2="732.2" y2="76.5"/>
	<polygon class="st1" points="722.8,66.6 722.8,86.4 749.2,77.6 	"/>
	<line class="st1" x1="410.8" y1="77.6" x2="480.5" y2="77.6"/>
	<polygon class="st1" points="471.2,67.8 471.2,87.5 497.5,78.7 	"/>
	<line class="st1" x1="159.8" y1="76.5" x2="229.5" y2="76.5"/>
	<polygon class="st1" points="220.2,66.6 220.2,86.4 246.5,77.6 	"/>
	<path class="st0" d="M159.2,76.5c0,8.1-3.2,15.4-8.4,20.8c-5.4,5.6-13.1,9.1-21.5,9.1c-16.5,0-29.9-13.4-29.9-29.9
		c0-8.7,3.7-16.5,9.6-22c5.3-4.9,12.4-7.9,20.3-7.9C145.8,46.6,159.2,60,159.2,76.5z"/>
	<line class="st0" x1="109" y1="54.5" x2="150.8" y2="97.3"/>
	<polyline class="st0" points="129.3,76.5 107.8,97.3 150.8,55.8 	"/>
	<line class="st1" x1="7" y1="75.9" x2="76.7" y2="75.9"/>
	<polygon class="st1" points="67.3,66 67.3,85.8 93.7,77 	"/>
</g>
<g id="Layer_2">
	<polygon class="st2" points="150.3,96.9 128.6,76.2 107.9,96.9 121.3,105.1 131.9,105.9 140.5,103.4 	"/>
</g>
<g id="Layer_3">
	<line class="st3" x1="129.1" y1="210.7" x2="129.1" y2="126.4"/>
	<polygon class="st1" points="119.2,135.7 139,135.7 130.2,109.4 	"/>
	<line class="st1" x1="697.3" y1="210.7" x2="436.7" y2="210.7"/>
	<polygon class="st1" points="440.3,220.6 440.3,200.9 414,209.6 	"/>
	<line class="st3" x1="248.3" y1="210.7" x2="129.1" y2="210.7"/>
	<line class="st3" x1="697.3" y1="76.5" x2="697.3" y2="210.7"/>
	<rect x="287.7" y="199.6" class="st4" width="97" height="42"/>
	<text transform="matrix(1 0 0 1 287.6667 220.9073)" class="st5 st6">Senzor</text>
	<rect x="269" y="65.3" class="st4" width="147" height="51.4"/>
	<text transform="matrix(1 0 0 1 269 86.64)" class="st5 st6">Regulátor</text>
	<rect x="511" y="47.5" class="st4" width="138" height="58"/>
	<text transform="matrix(1 0 0 1 518.3262 65.2732)"><tspan x="0" y="0" class="st5 st7">Regulovaná </tspan><tspan x="22.7" y="30" class="st5 st7">sústava</tspan></text>
	<rect x="23" y="32.8" class="st4" width="64" height="46"/>
	<text transform="matrix(1 0 0 1 30.4751 54.0683)" class="st5 st6">w(t)</text>
	<rect x="181.9" y="32.8" class="st4" width="64" height="46"/>
	<text transform="matrix(1 0 0 1 192.893 54.0683)" class="st5 st6">e(t)</text>
	<rect x="436.7" y="31.5" class="st4" width="64" height="46"/>
	<text transform="matrix(1 0 0 1 446.9171 52.8497)" class="st5 st6">u(t)</text>
	<rect x="685.2" y="32.8" class="st4" width="64" height="46"/>
	<text transform="matrix(1 0 0 1 696.6169 54.0683)" class="st5 st6">y(t)</text>
</g>
</svg>
